<?xml version="1.0" encoding="utf-8"?>
<svg viewBox="0 0 500 500" xmlns="http://www.w3.org/2000/svg" xmlns:bx="https://boxy-svg.com">
  <defs>
    <linearGradient id="color-1" bx:pinned="true">
      <stop style="stop-color: #d8d8d8;"/>
    </linearGradient>
  </defs>
  <path d="M 266.951 278.101 C 276.398 277.123 283.565 268.979 283.239 259.205 C 282.914 249.432 274.769 241.613 264.996 241.613 L 264.345 241.613 C 254.245 241.939 246.427 250.409 246.753 260.508 C 247.079 265.395 249.033 269.63 251.965 272.562 C 240.889 294.39 223.949 310.353 198.539 323.71 C 181.273 332.832 163.356 336.09 145.439 333.81 C 130.779 331.855 119.377 325.34 112.209 314.588 C 101.785 298.625 100.808 281.358 109.604 264.092 C 115.794 251.712 125.566 242.59 131.756 238.029 C 130.453 233.794 128.498 226.627 127.521 221.415 C 80.284 255.622 85.171 301.883 99.505 323.71 C 110.255 340 132.082 350.099 156.189 350.099 C 162.704 350.099 169.219 349.447 175.735 347.819 C 217.434 339.674 249.034 314.914 266.951 278.101 Z M 324.287 237.704 C 299.528 208.709 263.042 192.746 221.343 192.746 L 216.131 192.746 C 213.199 186.882 207.009 182.972 200.168 182.972 L 199.516 182.972 C 189.418 183.298 181.6 191.768 181.925 201.868 C 182.251 211.641 190.395 219.46 200.168 219.46 L 200.819 219.46 C 207.986 219.134 214.176 214.573 216.782 208.383 L 222.646 208.383 C 247.405 208.383 270.86 215.55 292.036 229.559 C 308.324 240.31 320.052 254.319 326.567 271.259 C 332.105 284.942 331.779 298.299 325.915 309.702 C 316.794 326.968 301.483 336.416 281.285 336.416 C 268.254 336.416 255.875 332.506 249.359 329.574 C 245.776 332.832 239.26 338.044 234.699 341.303 C 248.708 347.818 263.042 351.402 276.724 351.402 C 307.998 351.402 331.128 334.135 339.924 316.869 C 349.371 297.973 348.719 265.395 324.287 237.704 Z M 158.795 283.638 C 159.121 293.412 167.265 301.23 177.038 301.23 L 177.69 301.23 C 187.789 300.905 195.607 292.434 195.281 282.335 C 194.956 272.561 186.811 264.743 177.038 264.743 L 176.387 264.743 C 175.735 264.743 174.757 264.743 174.107 265.068 C 160.75 242.915 155.212 218.808 157.167 192.745 C 158.469 173.198 164.985 156.257 176.387 142.248 C 185.834 130.194 204.077 124.33 216.457 124.005 C 250.988 123.353 265.647 166.356 266.625 183.623 C 270.86 184.6 278.027 186.881 282.914 188.51 C 279.004 135.734 246.427 108.368 215.154 108.368 C 185.834 108.368 158.795 129.544 148.044 160.819 C 133.059 202.519 142.832 242.59 161.075 274.191 C 159.447 276.471 158.469 280.055 158.795 283.639 Z" style="fill: rgb(255, 1, 79);"/>
</svg>